{"title":"The Blue Max  (War Drama 1966)  George Peppard, James Mason &amp;amp","uid":9213910,"size":739934875,"categoryP":"video","categoryS":"movies","magnet":"?xt=urn:btih:345c6fa4a945646778806489c004a0782e83cc90&amp;dn=The+Blue+Max++%28War+Drama+1966%29++George+Peppard%2C+James+Mason+%26amp&amp;tr=udp%3A%2F%2Ftracker.openbittorrent.com%3A80&amp;tr=udp%3A%2F%2Fopen.demonii.com%3A1337&amp;tr=udp%3A%2F%2Ftracker.coppersurfer.tk%3A6969&amp;tr=udp%3A%2F%2Fexodus.desync.com%3A6969","seeders":10,"leechers":4,"uploader":"BurtonW","files":9,"time":1384834302,"description":"VERY good quality film!\n\n\nStoryline\n\nThe tactics of a German fighter pilot offend his aristocratic comrades but win him his country's most honored medal, the Blue Max. The General finds him useful as a hero even though his wife also finds him useful as a love object. In the end the General arranges for him to test-fly an untried fighter.\n\nTechnical info:\n\nGeneral\nComplete name : The Blue Max (War Drama 1966) George Peppard, James Mason &amp; Ursula AndressThe Blue Max (War Drama 1966) George Peppard, James Mason &amp; Ursula Andress.mp4\nFormat : MPEG-4\nFormat profile : Base Media / Version 2\nCodec ID : mp42\nFile size : 705 MiB\nDuration : 2h 36mn\nOverall bit rate mode : Variable\nOverall bit rate : 631 Kbps\nEncoded date : UTC 2013-11-11 03:38:55\nTagged date : UTC 2013-11-11 08:41:10\n\nVideo\nID : 1\nFormat : AVC\nFormat/Info : Advanced Video Codec\nFormat profile : &lt;a class=&quot;__cf_email__&quot; href=&quot;/cdn-cgi/l/email-protection&quot; data-cfemail=&quot;6528040c0b2529514b55&quot;&gt;[email&amp;#160;protected]&lt;/a&gt;&lt;script cf-hash='f9e31' type=&quot;text/javascript&quot;&gt;\n/* &lt;![CDATA[ */!function(){try{var t=&quot;currentScript&quot;in document?document.currentScript:function(){for(var t=document.getElementsByTagName(&quot;script&quot;),e=t.length;e--;)if(t[e].getAttribute(&quot;cf-hash&quot;))return t[e]}();if(t&amp;&amp;t.previousSibling){var e,r,n,i,c=t.previousSibling,a=c.getAttribute(&quot;data-cfemail&quot;);if(a){for(e=&quot;&quot;,r=parseInt(a.substr(0,2),16),n=2;a.length-n;n+=2)i=parseInt(a.substr(n,2),16)^r,e+=String.fromCharCode(i);e=document.createTextNode(e),c.parentNode.replaceChild(e,c)}}}catch(u){}}();/* ]]&gt; */&lt;/script&gt;\nFormat settings, CABAC : Yes\nFormat settings, ReFrames : 8 frames\nCodec ID : avc1\nCodec ID/Info : Advanced Video Coding\nDuration : 2h 36mn\nBit rate mode : Variable\nBit rate : 464 Kbps\nWidth : 720 pixels\nHeight : 480 pixels\nDisplay aspect ratio : 3:2\nFrame rate mode : Constant\nFrame rate : 24.000 fps\nStandard : NTSC\nColor space : YUV\nChroma subsampling : 4:2:0\nBit depth : 8 bits\nScan type : Progressive\nBits/(Pixel*Frame) : 0.056\nStream size : 518 MiB (74%)\nWriting library : x264 core 130 r2273 b3065e6\nEncoded date : UTC 2013-11-11 03:38:55\nTagged date : UTC 2013-11-11 08:41:10\nColor primaries : BT.601 NTSC\nTransfer characteristics : BT.709\nMatrix coefficients : BT.601\n\nAudio\nID : 2\nFormat : AAC\nFormat/Info : Advanced Audio Codec\nFormat profile : LC\nCodec ID : 40\nDuration : 2h 36mn\nBit rate mode : Variable\nBit rate : 160 Kbps\nMaximum bit rate : 282 Kbps\nChannel(s) : 2 channels\nChannel positions : Front: L R\nSampling rate : 48.0 KHz\nCompression mode : Lossy\nDelay relative to video : 83ms\nStream size : 179 MiB (25%)\nLanguage : English\nEncoded date : UTC 2013-11-11 03:38:55\nTagged date : UTC 2013-11-11 08:41:09\n\nText\nID : 3\nFormat : mp4s\nCodec ID : E0\nDuration : 2h 33mn\nBit rate mode : Variable\nBit rate : 2 868 bps\nMaximum bit rate : 4 257 Mbps\nDelay relative to video : 83ms\nStream size : 3.15 MiB (0%)\nLanguage : English\nEncoded date : UTC 2013-11-11 03:38:55\nTagged date : UTC 2013-11-11 08:40:10","torrent":{"xt":"urn:btih:345c6fa4a945646778806489c004a0782e83cc90","amp;dn":"The+Blue+Max++%28War+Drama+1966%29++George+Peppard%2C+James+Mason+%26amp","amp;tr":["udp%3A%2F%2Ftracker.openbittorrent.com%3A80","udp%3A%2F%2Fopen.demonii.com%3A1337","udp%3A%2F%2Ftracker.coppersurfer.tk%3A6969","udp%3A%2F%2Fexodus.desync.com%3A6969"],"infoHash":"345c6fa4a945646778806489c004a0782e83cc90","infoHashBuffer":{"type":"Buffer","data":[52,92,111,164,169,69,100,103,120,128,100,137,192,4,160,120,46,131,204,144]},"announce":[],"urlList":[]}}